<mxfile host="app.diagrams.net" agent="Mozilla/5.0 (X11; Linux x86_64) AppleWebKit/537.36 (KHTML, like Gecko) Chrome/128.0.0.0 Safari/537.36" version="24.7.14">
  <diagram name="Page-1" id="7b8ZBI9Szsv6WEtLPp9a">
    <mxGraphModel dx="794" dy="1180" grid="1" gridSize="10" guides="1" tooltips="1" connect="1" arrows="1" fold="1" page="1" pageScale="1" pageWidth="827" pageHeight="1169" math="0" shadow="0">
      <root>
        <mxCell id="0" />
        <mxCell id="1" parent="0" />
        <mxCell id="KEXesUUuygaMdhtNGISf-3" value="Wait" style="edgeStyle=orthogonalEdgeStyle;rounded=0;orthogonalLoop=1;jettySize=auto;html=1;exitX=1;exitY=0.5;exitDx=0;exitDy=0;entryX=0;entryY=0.5;entryDx=0;entryDy=0;" edge="1" parent="1" source="KEXesUUuygaMdhtNGISf-1" target="KEXesUUuygaMdhtNGISf-2">
          <mxGeometry relative="1" as="geometry" />
        </mxCell>
        <mxCell id="KEXesUUuygaMdhtNGISf-1" value="Caller rings urgent care call centre" style="rounded=1;whiteSpace=wrap;html=1;fillColor=#dae8fc;strokeColor=#6c8ebf;" vertex="1" parent="1">
          <mxGeometry x="80" y="240" width="80" height="50" as="geometry" />
        </mxCell>
        <mxCell id="KEXesUUuygaMdhtNGISf-5" style="edgeStyle=orthogonalEdgeStyle;rounded=0;orthogonalLoop=1;jettySize=auto;html=1;exitX=1;exitY=0.5;exitDx=0;exitDy=0;entryX=0;entryY=0.5;entryDx=0;entryDy=0;" edge="1" parent="1" source="KEXesUUuygaMdhtNGISf-2" target="KEXesUUuygaMdhtNGISf-4">
          <mxGeometry relative="1" as="geometry" />
        </mxCell>
        <mxCell id="KEXesUUuygaMdhtNGISf-2" value="Speak with call operator" style="rounded=1;whiteSpace=wrap;html=1;fillColor=#dae8fc;strokeColor=#6c8ebf;" vertex="1" parent="1">
          <mxGeometry x="230" y="240" width="80" height="50" as="geometry" />
        </mxCell>
        <mxCell id="KEXesUUuygaMdhtNGISf-7" value="Wait" style="rounded=0;orthogonalLoop=1;jettySize=auto;html=1;exitX=0.893;exitY=0.613;exitDx=0;exitDy=0;entryX=0;entryY=0.5;entryDx=0;entryDy=0;exitPerimeter=0;" edge="1" parent="1" source="KEXesUUuygaMdhtNGISf-4" target="KEXesUUuygaMdhtNGISf-6">
          <mxGeometry relative="1" as="geometry" />
        </mxCell>
        <mxCell id="KEXesUUuygaMdhtNGISf-10" style="rounded=0;orthogonalLoop=1;jettySize=auto;html=1;exitX=0.88;exitY=0.4;exitDx=0;exitDy=0;entryX=0;entryY=0.25;entryDx=0;entryDy=0;exitPerimeter=0;" edge="1" parent="1" source="KEXesUUuygaMdhtNGISf-4" target="KEXesUUuygaMdhtNGISf-8">
          <mxGeometry relative="1" as="geometry" />
        </mxCell>
        <mxCell id="KEXesUUuygaMdhtNGISf-4" value="Do they need&lt;div&gt;callback from&lt;/div&gt;&lt;div&gt;a nurse?&lt;/div&gt;" style="rhombus;whiteSpace=wrap;html=1;" vertex="1" parent="1">
          <mxGeometry x="339" y="225" width="150" height="80" as="geometry" />
        </mxCell>
        <mxCell id="KEXesUUuygaMdhtNGISf-9" style="rounded=0;orthogonalLoop=1;jettySize=auto;html=1;exitX=1;exitY=0.5;exitDx=0;exitDy=0;entryX=0;entryY=0.75;entryDx=0;entryDy=0;" edge="1" parent="1" source="KEXesUUuygaMdhtNGISf-6" target="KEXesUUuygaMdhtNGISf-8">
          <mxGeometry relative="1" as="geometry" />
        </mxCell>
        <mxCell id="KEXesUUuygaMdhtNGISf-6" value="Speak with nurse" style="rounded=1;whiteSpace=wrap;html=1;fillColor=#dae8fc;strokeColor=#6c8ebf;" vertex="1" parent="1">
          <mxGeometry x="560" y="280" width="70" height="40" as="geometry" />
        </mxCell>
        <mxCell id="KEXesUUuygaMdhtNGISf-8" value="Exit" style="rounded=1;whiteSpace=wrap;html=1;fillColor=#dae8fc;strokeColor=#6c8ebf;" vertex="1" parent="1">
          <mxGeometry x="660" y="240" width="50" height="40" as="geometry" />
        </mxCell>
        <mxCell id="KEXesUUuygaMdhtNGISf-12" value="No" style="text;html=1;align=center;verticalAlign=middle;whiteSpace=wrap;rounded=0;" vertex="1" parent="1">
          <mxGeometry x="440" y="230" width="60" height="30" as="geometry" />
        </mxCell>
        <mxCell id="KEXesUUuygaMdhtNGISf-13" value="Yes" style="text;html=1;align=center;verticalAlign=middle;whiteSpace=wrap;rounded=0;" vertex="1" parent="1">
          <mxGeometry x="440" y="270" width="60" height="30" as="geometry" />
        </mxCell>
      </root>
    </mxGraphModel>
  </diagram>
</mxfile>
